<svg viewBox="0 0 800 300" xmlns="http://www.w3.org/2000/svg">
  <!-- Background -->
  <rect width="800" height="300" fill="#f5f5f5" rx="10" ry="10"/>
  
  <!-- Title -->
  <text x="400" y="40" font-family="Arial, sans-serif" font-size="24" font-weight="bold" text-anchor="middle">Terraform Workflow</text>
  
  <!-- Write Box -->
  <rect x="100" y="100" width="120" height="80" rx="10" ry="10" fill="#e1f5fe" stroke="#0288d1" stroke-width="2"/>
  <text x="160" y="145" font-family="Arial, sans-serif" font-size="20" font-weight="bold" text-anchor="middle">Write</text>
  <text x="160" y="170" font-family="Arial, sans-serif" font-size="14" text-anchor="middle">HCL code</text>
  
  <!-- Plan Box -->
  <rect x="300" y="100" width="120" height="80" rx="10" ry="10" fill="#e8f5e9" stroke="#388e3c" stroke-width="2"/>
  <text x="360" y="145" font-family="Arial, sans-serif" font-size="20" font-weight="bold" text-anchor="middle">Plan</text>
  <text x="360" y="170" font-family="Arial, sans-serif" font-size="14" text-anchor="middle">Execution plan</text>
  
  <!-- Apply Box -->
  <rect x="500" y="100" width="120" height="80" rx="10" ry="10" fill="#fff3e0" stroke="#f57c00" stroke-width="2"/>
  <text x="560" y="145" font-family="Arial, sans-serif" font-size="20" font-weight="bold" text-anchor="middle">Apply</text>
  <text x="560" y="170" font-family="Arial, sans-serif" font-size="14" text-anchor="middle">Create resources</text>
  
  <!-- Destroy Box (optional) -->
  <rect x="500" y="210" width="120" height="50" rx="5" ry="5" fill="#ffebee" stroke="#d32f2f" stroke-width="2" stroke-dasharray="5,3"/>
  <text x="560" y="242" font-family="Arial, sans-serif" font-size="16" font-weight="bold" text-anchor="middle">Destroy</text>
  <text x="560" y="255" font-family="Arial, sans-serif" font-size="10" font-style="italic" text-anchor="middle">(Optional)</text>
  
  <!-- Arrows -->
  <line x1="220" y1="140" x2="300" y2="140" stroke="#666" stroke-width="2" marker-end="url(#arrowhead)"/>
  <line x1="420" y1="140" x2="500" y2="140" stroke="#666" stroke-width="2" marker-end="url(#arrowhead)"/>
  <line x1="560" y1="180" x2="560" y2="210" stroke="#666" stroke-width="2" stroke-dasharray="5,3" marker-end="url(#arrowhead)"/>
  
  <!-- Arrow Definitions -->
  <defs>
    <marker id="arrowhead" markerWidth="10" markerHeight="7" refX="9" refY="3.5" orient="auto">
      <polygon points="0 0, 10 3.5, 0 7" fill="#666"/>
    </marker>
  </defs>
  
  <!-- Legend -->
  <rect x="100" y="210" width="320" height="60" rx="5" ry="5" fill="#fafafa" stroke="#bdbdbd" stroke-width="1"/>
  <text x="110" y="230" font-family="Arial, sans-serif" font-size="12" font-weight="bold">Commands:</text>
  <text x="110" y="250" font-family="Arial, sans-serif" font-size="12">Write: terraform init, terraform fmt, terraform validate</text>
  <text x="110" y="265" font-family="Arial, sans-serif" font-size="12">Plan: terraform plan</text>
  <text x="260" y="250" font-family="Arial, sans-serif" font-size="12">Apply: terraform apply</text>
  <text x="260" y="265" font-family="Arial, sans-serif" font-size="12">Destroy: terraform destroy</text>
</svg>