<svg viewBox="0 0 900 500" xmlns="http://www.w3.org/2000/svg">
  <!-- Background -->
  <rect width="900" height="500" fill="#f6f6f6" rx="10" ry="10"/>
  
  <!-- Title -->
  <text x="450" y="80" font-family="Arial, sans-serif" font-size="36" font-weight="bold" text-anchor="middle" fill="#333">Terraform Workflow</text>
  
  <!-- Write Box -->
  <rect x="200" y="180" width="150" height="110" rx="10" ry="10" fill="#e1f5fe" stroke="#0288d1" stroke-width="2"/>
  <text x="275" y="225" font-family="Arial, sans-serif" font-size="28" font-weight="bold" text-anchor="middle" fill="#333">Write</text>
  <text x="275" y="255" font-family="Arial, sans-serif" font-size="18" text-anchor="middle" fill="#555">HCL code</text>
  
  <!-- Plan Box -->
  <rect x="450" y="180" width="150" height="110" rx="10" ry="10" fill="#e8f5e9" stroke="#388e3c" stroke-width="2"/>
  <text x="525" y="225" font-family="Arial, sans-serif" font-size="28" font-weight="bold" text-anchor="middle" fill="#333">Plan</text>
  <text x="525" y="255" font-family="Arial, sans-serif" font-size="18" text-anchor="middle" fill="#555">Execution plan</text>
  
  <!-- Apply Box -->
  <rect x="700" y="180" width="150" height="110" rx="10" ry="10" fill="#fff3e0" stroke="#f57c00" stroke-width="2"/>
  <text x="775" y="225" font-family="Arial, sans-serif" font-size="28" font-weight="bold" text-anchor="middle" fill="#333">Apply</text>
  <text x="775" y="255" font-family="Arial, sans-serif" font-size="18" text-anchor="middle" fill="#555">Create resources</text>
  
  <!-- Destroy Box (optional) -->
  <rect x="700" y="350" width="150" height="80" rx="10" ry="10" fill="#ffebee" stroke="#d32f2f" stroke-width="2" stroke-dasharray="5,3"/>
  <text x="775" y="385" font-family="Arial, sans-serif" font-size="28" font-weight="bold" text-anchor="middle" fill="#333">Destroy</text>
  <text x="775" y="410" font-family="Arial, sans-serif" font-size="16" text-anchor="middle" fill="#777" font-style="italic">(Optional)</text>
  
  <!-- Arrows -->
  <line x1="350" y1="235" x2="440" y2="235" stroke="#777" stroke-width="3"/>
  <polygon points="430,230 450,235 430,240" fill="#777"/>
  
  <line x1="600" y1="235" x2="690" y2="235" stroke="#777" stroke-width="3"/>
  <polygon points="680,230 700,235 680,240" fill="#777"/>
  
  <line x1="775" y1="290" x2="775" y2="340" stroke="#777" stroke-width="3" stroke-dasharray="5,3"/>
  <polygon points="770,330 775,350 780,330" fill="#777"/>
  
  <!-- Commands Box -->
  <rect x="175" y="350" width="450" height="80" rx="5" ry="5" fill="#fafafa" stroke="#bdbdbd" stroke-width="1"/>
  <text x="195" y="375" font-family="Arial, sans-serif" font-size="18" font-weight="bold" fill="#333">Commands:</text>
  <text x="195" y="400" font-family="Arial, sans-serif" font-size="16" fill="#555">Write: terraform init, terraform fmt, terraform validate</text>
  <text x="195" y="420" font-family="Arial, sans-serif" font-size="16" fill="#555">Plan: terraform plan</text>
  <text x="380" y="400" font-family="Arial, sans-serif" font-size="16" fill="#555">Apply: terraform apply</text>
  <text x="380" y="420" font-family="Arial, sans-serif" font-size="16" fill="#555">Destroy: terraform destroy</text>
</svg>